<?xml version="1.0" encoding="utf-8"?><!DOCTYPE svg PUBLIC "-//W3C//DTD SVG 1.1//EN" "http://www.w3.org/Graphics/SVG/1.1/DTD/svg11.dtd"><svg version="1.1" xmlns="http://www.w3.org/2000/svg" xmlns:xlink="http://www.w3.org/1999/xlink" x="0px" y="0px" viewBox="-4.324 16.209 100 79.505" enable-background="new -4.324 16.209 100 63.604" xml:space="preserve"><g><polygon points="-4.324,35.294 10.409,21.121 2.415,16.209 13.564,16.209 17.463,20.103 20.445,17.122 21.918,18.596 
		21.918,22.174 20.584,23.507 21.113,24.033 34.756,25.823 90.117,25.823 94.156,25.823 94.156,55.395 95.676,56.925 92.149,60.45 
		92.149,29.084 88.892,29.084 88.892,79.813 83.207,79.813 84.682,76.763 84.682,69.502 77.944,59.817 69.106,79.813 63.421,79.813 
		68.265,71.288 68.265,64.131 63.527,55.395 46.477,58.765 48.265,79.813 42.583,79.813 43.215,72.448 38.478,61.818 35.216,79.813 
		28.901,79.813 31.635,72.764 31.111,60.344 15.848,39.504 -0.988,39.504 	"/></g><text x="-4.324" y="94.813" fill="#000000" font-size="5px" font-weight="bold" font-family="'Helvetica Neue', Helvetica, Arial-Unicode, Arial, Sans-serif">Created by Taylor Medlin</text><text x="-4.324" y="99.813" fill="#000000" font-size="5px" font-weight="bold" font-family="'Helvetica Neue', Helvetica, Arial-Unicode, Arial, Sans-serif">from the Noun Project</text></svg>