<svg xmlns="http://www.w3.org/2000/svg" viewBox="0 0 90 112.5" fill="none" x="0px" y="0px"><path d="M45.2076 85C41.0028 85 36.7988 84.0696 32.6178 82.2088C30.1187 81.0934 29.272 79.3398 29.8744 76.5187C29.9579 76.125 30.0528 75.7314 30.1482 75.3378C30.2913 74.7652 30.4283 74.1865 30.5297 73.602C30.7027 72.5642 30.6427 71.8485 30.3564 71.4728C29.9986 71.0016 29.057 70.8167 28.3353 70.7451C27.6971 70.6795 27.053 70.6378 26.4088 70.596C25.5082 70.5364 24.6067 70.4769 23.712 70.3576C22.6981 70.2263 21.6664 69.9579 20.724 69.5822C16.6921 67.9658 15.3919 65.6755 16.2508 61.6913C16.9486 58.4407 16.4004 55.554 14.4262 52.0469C11.611 47.0428 10.5439 41.2515 11.1761 34.3388C11.4862 30.9092 11.9385 28.3445 12.6483 26.0244C14.6344 19.4934 19.0253 14.5131 26.8923 9.8728C32.2304 6.72958 38.3607 5.13718 45.6372 5C45.6611 5 45.6847 5 45.7085 5C57.2735 5.34593 66.8048 9.99215 74.0276 18.8015C77.6003 23.1615 78.6142 28.4041 79.0615 31.9649C79.7713 37.5773 79.2114 43.327 77.4161 49.0587C76.9807 50.4544 76.2887 51.862 75.3702 53.2457C73.8731 55.4943 73.4433 57.8741 74.0218 60.743C75.155 66.3972 73.2827 68.9857 67.1037 70.3039C65.9764 70.5424 64.8488 70.596 63.7633 70.6437C63.2324 70.6676 62.7009 70.6915 62.1761 70.7393C61.0667 70.8406 60.3511 71.0852 60.0588 71.461C59.7666 71.8367 59.7009 72.5762 59.8739 73.6617C59.9634 74.2045 60.0949 74.7354 60.2321 75.2662C60.3395 75.7016 60.4528 76.1429 60.5423 76.5842C61.1149 79.4173 60.2799 81.1113 57.745 82.2326C53.5819 84.0756 49.3946 85 45.2076 85ZM45.6488 7.97017C38.9151 8.09542 33.2679 9.55675 28.395 12.4256C21.2139 16.6603 17.2354 21.1158 15.4819 26.8833C14.8378 29.0006 14.42 31.3863 14.1277 34.607C13.5551 40.8995 14.497 46.1303 17.0079 50.5857C19.34 54.7249 20.0028 58.3394 19.1499 62.3116C18.6012 64.8584 19.1259 65.7411 21.8278 66.8266C22.5375 67.1129 23.3185 67.3156 24.0819 67.4111C24.9169 67.5184 25.7586 67.5722 26.5996 67.6318C27.2795 67.6796 27.9525 67.7212 28.6265 67.7927C30.553 67.9896 31.8895 68.6039 32.7066 69.6715C33.5238 70.7392 33.7623 72.1825 33.4522 74.0911C33.3448 74.7472 33.1895 75.3973 33.0284 76.0474C32.939 76.4113 32.8497 76.7752 32.7722 77.145C32.4382 78.7017 32.6888 78.9999 33.822 79.5009C41.355 82.8588 49.0021 82.8707 56.5292 79.5247C57.7161 78.9999 57.9359 78.7373 57.6198 77.1747C57.5423 76.7751 57.4416 76.3816 57.3402 75.9879C57.1852 75.3736 57.0294 74.7532 56.934 74.127C56.6238 72.1707 56.8738 70.7035 57.7028 69.6359C58.5497 68.5503 59.8804 67.9598 61.9023 67.7749C62.4689 67.7212 63.048 67.6974 63.6206 67.6735C64.6345 67.6258 65.5888 67.5841 66.4775 67.3932C71.6188 66.2958 71.827 64.9359 71.0993 61.3215C70.3657 57.6892 70.9506 54.5042 72.8831 51.5995C73.6346 50.4723 74.219 49.2855 74.5649 48.1701C76.235 42.8499 76.7543 37.5236 76.0983 32.3406C75.4482 27.1873 74.0996 23.5969 71.7138 20.6863C65.0755 12.5807 56.3072 8.29821 45.6488 7.97017ZM42.655 71.8068C41.4979 71.8068 40.5206 71.3594 39.948 70.5662C39.4053 69.8206 39.3036 68.8664 39.6495 67.8823C40.3891 65.7888 41.3196 63.6058 42.5662 61.0173C43.0314 60.057 44.0275 59.4605 45.1727 59.4605H45.1785C46.3296 59.4605 47.3313 60.0571 47.8025 61.0233C48.9238 63.3315 49.9147 65.6277 50.7497 67.8524C51.1314 68.8843 50.9452 69.9459 50.2473 70.6974C49.5853 71.4131 48.5839 71.6875 47.552 71.4788C47.1345 71.5086 46.7229 71.5444 46.3114 71.5802C45.1483 71.6816 43.9502 71.7829 42.7395 71.8068C42.7096 71.8068 42.6789 71.8068 42.655 71.8068ZM42.4701 68.8246C42.5297 68.8306 42.5902 68.8485 42.6856 68.8366C43.795 68.8187 44.8921 68.7232 46.0551 68.6218C46.5621 68.5801 47.0625 68.5384 47.5695 68.4966C47.653 68.4906 47.7365 68.4906 47.82 68.4966C47.0625 66.4985 46.1862 64.4707 45.1902 62.4309C44.0211 64.8464 43.156 66.8802 42.4701 68.8246ZM60.3224 60.6236V60.5998C58.545 60.6594 53.69 59.2876 52.2466 58.5659C50.2009 57.546 48.7333 55.5718 48.2204 53.1503C47.6717 50.5797 48.2854 47.8957 49.86 45.9752C52.1503 43.1838 55.3233 43.3865 57.8761 43.5476L58.1921 43.5656C59.7726 43.661 61.473 44.0784 63.3876 44.8359C67.8549 46.6014 70.0618 51.5757 68.4157 56.1563C67.5687 58.5123 65.7015 59.9199 62.7134 60.4567C62.105 60.5641 61.5325 60.5819 60.9718 60.5998C60.7571 60.6057 60.5371 60.6117 60.3224 60.6236ZM55.9147 46.4404C54.2685 46.4404 53.081 46.7208 52.1505 47.86C51.1425 49.0886 50.7616 50.8301 51.1254 52.53C51.4534 54.0628 52.3415 55.2975 53.5761 55.9059C55.3535 56.7886 59.2955 57.5758 60.1185 57.6653C60.1305 57.6653 60.143 57.6652 60.1549 57.6593C60.3995 57.6473 60.6442 57.6356 60.8947 57.6296C61.3599 57.6177 61.8015 57.6056 62.1892 57.534C64.1216 57.1821 65.1529 56.4724 65.63 55.1483C66.7513 52.0349 65.3193 48.7904 62.3013 47.5975C60.7029 46.9653 59.2595 46.6073 58.013 46.5298L57.6853 46.5119C57.0412 46.4702 56.4515 46.4404 55.9147 46.4404ZM29.2468 60.4984C29.0977 60.4984 28.9489 60.4983 28.7998 60.4924C25.9787 60.4327 23.6231 59.1206 22.3229 56.8959C20.9749 54.5877 21.0113 51.6295 22.4248 48.9932C24.6734 44.7943 28.8233 44.0845 31.8592 43.5656C32.3781 43.4761 32.8802 43.4641 33.3634 43.4522C33.5721 43.4462 33.7805 43.4403 34.0011 43.4284C34.0429 43.4284 34.0846 43.4284 34.1264 43.4284C39.709 43.5894 41.2062 45.7127 42.1366 49.8341C43.1446 54.3074 40.961 57.9575 36.446 59.3591C34.0543 60.1106 31.5789 60.4984 29.2468 60.4984ZM34.0958 46.4105C33.8692 46.4225 33.6494 46.4284 33.4347 46.4284C33.059 46.4403 32.7015 46.4405 32.3615 46.5001C29.099 47.0548 26.4923 47.6989 25.043 50.4007C24.1185 52.1185 24.0641 53.9912 24.8871 55.4048C25.6625 56.7348 27.076 57.4865 28.8653 57.5282C31.0185 57.5819 33.3271 57.2299 35.5578 56.538C38.5936 55.5957 39.8995 53.4485 39.2374 50.5021C38.5754 47.5617 38.1337 46.5358 34.0958 46.4105Z" fill="black"/><text x="0" y="105" fill="#000000" font-size="5px" font-weight="bold" font-family="'Helvetica Neue', Helvetica, Arial-Unicode, Arial, Sans-serif">Created by Umer Younas</text><text x="0" y="110" fill="#000000" font-size="5px" font-weight="bold" font-family="'Helvetica Neue', Helvetica, Arial-Unicode, Arial, Sans-serif">from the Noun Project</text></svg>