<svg xmlns="http://www.w3.org/2000/svg" data-name="Layer 1" viewBox="0 0 100 125" x="0px" y="0px"><title>icons_animals_2</title><path d="M89.24,47.69c2.76-1.93,4.52-4.17,4-6.68a6.27,6.27,0,0,0-3.21-4.77,8,8,0,0,0-4.84-.56c3.38-3.71,5.44-7.23,4.18-9.53a4.87,4.87,0,0,0-3.57-2.65c-2-.33-4.34.61-6.22,1.71,1.77-3.67,2.36-6.58,1.78-8.83a5.45,5.45,0,0,0-2.69-3.48,5.64,5.64,0,0,0-5.13-.32c-8.27,3.35-15.38,25-17,30.27C52.16,41,44.78,40,43.2,39.75a7.42,7.42,0,0,1-2.48-4.59c-.27-2.39.77-5,3.07-7.64,4.82-5.61,6.77-11.39,5.36-15.87C48.35,9.1,46,5.72,39.52,4.06,26.37.7,20.13,19.92,19.87,20.74a1,1,0,0,0,1.62,1,23.58,23.58,0,0,1,6.82-4.13c.71,1.32,1.93,4.86-1.94,9.41-5.73,6.75-12.42,27.2-13,31.78a1,1,0,0,0,0,.43,19.28,19.28,0,0,0,1.12,12.39C17.66,79,25,84.1,34.89,85.73v9.34a10.55,10.55,0,0,0-5.55,2.59A1,1,0,0,0,30.79,99c.15-.16,3.81-3.78,12.75-1.54A1,1,0,1,0,44,95.55a22.92,22.92,0,0,0-7.13-.73V86a39.1,39.1,0,0,0,13.51-.72v9.79a10.58,10.58,0,0,0-5.55,2.59A1,1,0,0,0,46.3,99c.15-.16,3.81-3.78,12.75-1.54a1,1,0,0,0,.48-1.94,22.93,22.93,0,0,0-7.13-.73V84.77a32.05,32.05,0,0,0,12.91-6.92c2.15,2.71,8.41,10.14,13,10.5h.34a3.71,3.71,0,0,0,2.66-1.07,6.68,6.68,0,0,0,2.23-4.79,6.88,6.88,0,0,0-.66-2.9,17.06,17.06,0,0,0,3.56.45,6.08,6.08,0,0,0,2.17-.34,3,3,0,0,0,1.83-1.76,7.17,7.17,0,0,0-1.93-7.84,12.19,12.19,0,0,0,4.71-1.72,4.4,4.4,0,0,0,2.14-3.66c0-3.42-3-5.39-5.62-6.46,3.64-1.13,6.27-2.72,6.22-5a4.87,4.87,0,0,0-1.66-3.68A9.39,9.39,0,0,0,89.24,47.69ZM89.17,38a4.33,4.33,0,0,1,2.15,3.36c.41,2.17-2.19,4.38-6,6.35h0a77.25,77.25,0,0,1-16.55,5.67A28.1,28.1,0,0,0,66.91,51a144.63,144.63,0,0,0,15.5-12.45C83.72,38,87,36.92,89.17,38ZM85.53,25.47a2.93,2.93,0,0,1,2.13,1.64c1.92,3.48-11.54,15-22.09,22.39-.81-.85-1.63-1.63-2.44-2.33,2.31-2.44,9.56-10.32,14.22-17.87C78.79,28,82.81,25,85.53,25.47Zm-11.19-11a3.68,3.68,0,0,1,3.39.21,3.46,3.46,0,0,1,1.75,2.23c.61,2.38-.68,6.28-3.74,11.26-4.63,7.55-12,15.51-14.15,17.78a30.6,30.6,0,0,0-3.16-2.17C60.8,35.81,67.66,17.13,74.34,14.43ZM27.9,28.37c4.21-5,3.28-9.17,2.37-11.2a6.17,6.17,0,0,1,3.28.31,1,1,0,1,0,.76-1.85C30.46,14,26,16.21,23.07,18.1,25.38,13,30.74,3.89,39,6c4.5,1.15,7.27,3.25,8.22,6.25,1.2,3.81-.61,8.9-5,14-2.69,3.13-3.88,6.23-3.54,9.2a9,9,0,0,0,1.73,4.3c-8.65.44-17.86,5.11-23.08,11.75C19.86,43.71,24.16,32.77,27.9,28.37ZM36,83.89c-9.55-1.37-16.7-6.11-19.59-13A17.18,17.18,0,0,1,18.2,53.73c4.85-7,14.87-12,23.64-12l.88,0c.68.09,9.92,1.28,14.07,3.41C59.1,46.31,68.15,52.5,69.93,61c.93,4.46-.33,8.86-3.76,13.07C60,81.64,47.86,85.59,36,83.89Zm45.55-1.41a4.77,4.77,0,0,1-1.63,3.38,1.75,1.75,0,0,1-1.45.49c-3.48-.27-9.23-6.73-11.74-9.92.34-.36.66-.73,1-1.11s.61-.77.89-1.16a84.86,84.86,0,0,0,11.47,4.69A6,6,0,0,1,81.55,82.48Zm7-5.24a1,1,0,0,1-.68.61c-1.39.54-4,.07-6.89-.81h0a84.58,84.58,0,0,1-11.27-4.56,18.37,18.37,0,0,0,1.87-4.24,38,38,0,0,0,12.54,2.25c.55,0,1.09,0,1.62,0C86.71,71.06,90,73.54,88.58,77.24Zm4.79-12.51a2.44,2.44,0,0,1-1.27,2c-3.2,2.2-11.71,2.6-20.06-.48a15.56,15.56,0,0,0-.1-5.42A99.82,99.82,0,0,0,86,59.21C87.41,59.5,93.36,61,93.36,64.73Zm-7.62-7.54-.09,0a98.61,98.61,0,0,1-14.22,1.66,20.22,20.22,0,0,0-1.61-3.66A79.47,79.47,0,0,0,86,49.59c1.5-.11,5.2,0,6.94,1.53a2.91,2.91,0,0,1,1,2.23C94,54.85,90.61,56.19,85.74,57.19Z"/><path d="M66.15,66.39a1,1,0,0,0,.26-.84,26,26,0,0,0-3.66-9.3,1,1,0,1,0-1.68,1.08,24.73,24.73,0,0,1,3.11,7.31A44.83,44.83,0,0,0,50.25,67c-4.5,1.45-12.91,3.35-18.63-.2-3.15-2-5.12-5.38-5.83-10.18a1,1,0,1,0-2,.3c.81,5.41,3.08,9.31,6.76,11.59a17.4,17.4,0,0,0,9.25,2.32,37.44,37.44,0,0,0,11-1.91c8.53-2.74,14.41-2.21,14.47-2.21A1,1,0,0,0,66.15,66.39Z"/><text x="0" y="115" fill="#000000" font-size="5px" font-weight="bold" font-family="'Helvetica Neue', Helvetica, Arial-Unicode, Arial, Sans-serif">Created by Iconic</text><text x="0" y="120" fill="#000000" font-size="5px" font-weight="bold" font-family="'Helvetica Neue', Helvetica, Arial-Unicode, Arial, Sans-serif">from the Noun Project</text></svg>