<svg xmlns="http://www.w3.org/2000/svg" xmlns:xlink="http://www.w3.org/1999/xlink" version="1.1" x="0px" y="0px" viewBox="0 0 100 125" style="enable-background:new 0 0 100 100;" xml:space="preserve"><g><g><path d="M37.98,44.31c-0.09,0-0.18-0.01-0.27-0.04c-0.5-0.15-0.79-0.67-0.64-1.17c1.24-4.22,3.23-8.03,5.61-10.74    c2.66-3.02,5.71-4.62,8.83-4.62c0.52,0,0.95,0.42,0.95,0.95c0,0.52-0.42,0.95-0.95,0.95c-5.1,0-10.17,5.62-12.62,14    C38.76,44.05,38.39,44.31,37.98,44.31z"/></g><g><g><path d="M31.02,50.7c-0.25,0-0.5-0.08-0.7-0.24c-0.32-0.25-0.49-0.64-0.45-1.04c0.64-5.85,2.41-11.6,4.87-15.78     c1.76-2.98,3.82-5.38,6.14-7.13c1.33-1,2.73-1.78,4.17-2.32c1.6-0.6,3.25-0.9,4.9-0.9c1.65,0,3.3,0.3,4.9,0.9     c1.44,0.54,2.84,1.32,4.17,2.32c2.32,1.75,4.39,4.15,6.14,7.13c1.86,3.15,3.32,7.15,4.21,11.55c0.11,0.55-0.19,1.1-0.71,1.31     l-6.81,2.66c-0.23,0.09-0.49,0.1-0.73,0.04l-7.36-2.08l-7.13,2.78c-0.23,0.09-0.49,0.1-0.73,0.04l-7.36-2.08l-7.09,2.77     C31.31,50.67,31.16,50.7,31.02,50.7z M49.96,25.6c-1.38,0-2.75,0.25-4.09,0.75c-1.23,0.46-2.44,1.13-3.58,2     c-2.08,1.57-3.94,3.74-5.54,6.46c-2.03,3.45-3.57,8.08-4.32,12.94l5.64-2.2c0.23-0.09,0.49-0.1,0.73-0.04l7.36,2.08l7.13-2.78     c0.23-0.09,0.49-0.1,0.73-0.04l7.36,2.08l5.53-2.16c-0.85-3.74-2.16-7.22-3.73-9.89c-1.6-2.72-3.47-4.89-5.54-6.46     c-1.15-0.87-2.35-1.54-3.58-2C52.71,25.85,51.33,25.6,49.96,25.6z"/></g><g><path d="M49.96,76.71c-5.74,0-10.94-2.37-14.65-6.66c-3.41-3.96-5.19-8.33-5.6-13.76c-0.03-0.39,0.14-0.76,0.45-1     c0.19-0.14,0.41-0.23,0.64-0.24l7.37-2.48c0.24-0.08,0.5-0.08,0.74,0l7.24,2.43l7.24-2.43c0.24-0.08,0.5-0.08,0.74,0l7.24,2.43     l7.24-2.43c0.24-0.08,0.49-0.08,0.73,0l0.15,0.05c0.48,0.15,0.8,0.6,0.8,1.1l0,0.11c0,3.4-0.47,6.37-1.44,9.07     c-0.93,2.58-2.32,4.92-4.24,7.15C60.9,74.35,55.69,76.71,49.96,76.71z M32.11,57.05c0.49,4.48,2.08,8.15,4.95,11.48     c3.26,3.78,7.84,5.86,12.9,5.86s9.63-2.08,12.9-5.86c3.26-3.78,4.86-7.93,5.09-13.3l-6.2,2.08c-0.24,0.08-0.5,0.08-0.74,0     l-7.24-2.43l-7.24,2.43c-0.24,0.08-0.5,0.08-0.74,0l-7.24-2.43L32.11,57.05z"/></g></g></g><text x="0" y="115" fill="#000000" font-size="5px" font-weight="bold" font-family="'Helvetica Neue', Helvetica, Arial-Unicode, Arial, Sans-serif">Created by zaenul yahya</text><text x="0" y="120" fill="#000000" font-size="5px" font-weight="bold" font-family="'Helvetica Neue', Helvetica, Arial-Unicode, Arial, Sans-serif">from the Noun Project</text></svg>