<svg xmlns="http://www.w3.org/2000/svg" xmlns:xlink="http://www.w3.org/1999/xlink" version="1.0" x="0px" y="0px" viewBox="0 0 123 153.75" enable-background="new 0 0 123 123" xml:space="preserve"><polygon fill-rule="evenodd" clip-rule="evenodd" points="46.1,35 42.7,19.1 51.6,30 61.9,1.9 68,35 106.4,10 79,40 100.2,38.5   79.1,49.9 122.8,44.7 89.4,59.6 105.9,67.8 89.7,69.8 107.7,107.6 73.4,74.9 72.4,98.5 62.5,79.8 42.1,121.3 46.1,79.8 17.1,106.4   35.2,74.7 13.2,75.5 38.2,63.9 0,58 35.1,54.9 24.3,45 35.2,45 7.8,5.1 "/><text x="0" y="138" fill="#000000" font-size="5px" font-weight="bold" font-family="'Helvetica Neue', Helvetica, Arial-Unicode, Arial, Sans-serif">Created by Elisabeta</text><text x="0" y="143" fill="#000000" font-size="5px" font-weight="bold" font-family="'Helvetica Neue', Helvetica, Arial-Unicode, Arial, Sans-serif">from the Noun Project</text></svg>