<svg xmlns="http://www.w3.org/2000/svg" xmlns:xlink="http://www.w3.org/1999/xlink" version="1.1" x="0px" y="0px" viewBox="0 0 100 125" enable-background="new 0 0 100 100" xml:space="preserve"><path d="M72.052,11.313c-1.842-0.094-3.636,0.026-5.37,0.332c-1.529,0.27-3.005,0.692-4.424,1.239  c-4.807,1.849-8.899,5.194-11.668,9.498C46.78,14.964,39.228,9.729,30.3,9.301c-1.834-0.094-3.63,0.032-5.373,0.339  C14.079,11.553,5.607,20.76,5.053,32.224c0,0-2.837,27.734,32.968,52.64c2.84,1.978,5.925,3.942,9.277,5.865  c47.861-21.686,47.675-54.172,47.675-54.172C95.609,23.254,85.347,11.948,72.052,11.313z"/><text x="0" y="115" fill="#000000" font-size="5px" font-weight="bold" font-family="'Helvetica Neue', Helvetica, Arial-Unicode, Arial, Sans-serif">Created by Alena Artemova</text><text x="0" y="120" fill="#000000" font-size="5px" font-weight="bold" font-family="'Helvetica Neue', Helvetica, Arial-Unicode, Arial, Sans-serif">from the Noun Project</text></svg>