<svg xmlns="http://www.w3.org/2000/svg" xmlns:xlink="http://www.w3.org/1999/xlink" version="1.1" x="0px" y="0px" viewBox="0 0 100 125" style="enable-background:new 0 0 100 100;" xml:space="preserve"><g><path d="M14.09,87.732c0,3.891-3.154,7.045-7.045,7.045S0,91.623,0,87.732c0-3.892,3.154-7.045,7.045-7.045   S14.09,83.841,14.09,87.732z M27.02,67.635c-5.136,0-9.299,4.164-9.299,9.299c0,5.137,4.164,9.301,9.299,9.301   s9.299-4.164,9.299-9.301C36.319,71.799,32.155,67.635,27.02,67.635z M78.625,16.183C73.776,9.694,64.323,5.223,53.522,5.223   c-10.8,0-20.254,4.471-25.103,10.959c-9.983,0-21.375,7.788-21.375,17.772c0,7.848,5.002,14.526,11.992,17.024   c2.665,8.497,10.601,14.661,19.976,14.661c5.635,0,10.747-2.23,14.51-5.853c3.763,3.622,8.874,5.853,14.51,5.853   c9.375,0,17.31-6.164,19.975-14.661C94.997,48.481,100,41.803,100,33.955C100,23.971,88.609,16.183,78.625,16.183z"/></g><text x="0" y="115" fill="#000000" font-size="5px" font-weight="bold" font-family="'Helvetica Neue', Helvetica, Arial-Unicode, Arial, Sans-serif">Created by b farias</text><text x="0" y="120" fill="#000000" font-size="5px" font-weight="bold" font-family="'Helvetica Neue', Helvetica, Arial-Unicode, Arial, Sans-serif">from the Noun Project</text></svg>