<svg xmlns="http://www.w3.org/2000/svg" xmlns:xlink="http://www.w3.org/1999/xlink" version="1.0" x="0px" y="0px" viewBox="0 0 100 125" enable-background="new 0 0 100 100" xml:space="preserve"><path d="M94.2140808,39.5975723c0-19.2458-19.7977829-34.8475723-44.2191811-34.8475723  c-24.4218235,0-44.2194061,15.6017723-44.2194061,34.8475723s19.7975807,34.8474655,44.2194061,34.8474655  C74.4162979,74.4450378,94.2140808,58.8433533,94.2140808,39.5975723z M33.028923,56.9575272h-7.3672714V55.450428  l2.6702995-3.3459167c0.4843121-0.5718155,0.8669643-0.9879684,1.3506088-1.5073166v-0.0354843h-3.7259617v-2.0804291h6.9325733  v1.5778389l-2.5475349,3.2068367c-0.467104,0.5546112-0.9002419,1.0922356-1.3856449,1.5593414v0.0352592h4.0729313V56.9575272z   M51.1637421,49.498848H37.2237282v-2.8523521l5.0523834-6.3325844c0.9146423-1.079731,1.640316-1.8687553,2.5562515-2.8510857  v-0.0675774h-7.0496788v-3.9363251h13.1168251v2.9849281l-4.8199387,6.0688858  c-0.884594,1.0501137-1.7029915,2.0691071-2.6232719,2.9497795v0.0676918h7.7074432V49.498848z M74.327919,45.5161667H54.0961113  v-4.1396408l7.3335037-9.1890831c1.328186-1.5696831,2.3795013-2.712738,3.7090034-4.140934v-0.0975132H54.9080009v-5.7117081  h19.0359535v4.3329067l-6.9943771,8.8053589c-1.2829208,1.5228806-2.4726715,3.0033188-3.8078079,4.2835159v0.0958633H74.327919  V45.5161667z"/><ellipse cx="78.7573547" cy="79.90979" rx="10.8209085" ry="8.5272875"/><ellipse cx="60.9982147" cy="90.3862915" rx="6.0471315" ry="4.7653069"/><text x="0" y="115" fill="#000000" font-size="5px" font-weight="bold" font-family="'Helvetica Neue', Helvetica, Arial-Unicode, Arial, Sans-serif">Created by Alex Tai</text><text x="0" y="120" fill="#000000" font-size="5px" font-weight="bold" font-family="'Helvetica Neue', Helvetica, Arial-Unicode, Arial, Sans-serif">from the Noun Project</text></svg>