<svg xmlns="http://www.w3.org/2000/svg" xmlns:xlink="http://www.w3.org/1999/xlink" version="1.1" x="0px" y="0px" viewBox="0 0 100 125" enable-background="new 0 0 100 100" xml:space="preserve"><path d="M84.091,43.386c0.848-1.485,1.242-3.173,1.044-4.872c-0.41-3.525-0.236-2.835-2.625-4.591  c-7.048-4.525-10.314-18.941-23.784-15.118c-6.735,1.912,7.842,6.16,11.902,12.079c-6.234-2.431-12.381-5.776-18.959-6.36  c-1.591-0.165-3.171-0.091-4.728,0.335c-1.138,0.312-2.263,0.811-3.372,1.543c-0.409,0.27-0.366,1.368,0.054,1.62  c1.14,0.684,5.439,1.335,6.768,1.75c5.426,1.569,10.83,2.999,15.062,7.088c-5.49-0.515-8.52-3.801-19.73,0.01  c-10.667,3.627-12.664,8.851-17.929,13.159c-0.135,0.229-2.415,1.712-2.415,1.712s-1.596-0.342-3.481-0.218  c-2.64,0.173-5.154,2.604-3.703,5.236c0.425,0.771,1.431,1.66,1.861,2.463c-2.685,1.79-6.4,4.253-7.088,4.907  c-2.184,1.498-4.348,3.018-6.43,4.621c-1.403,1.079-0.795,3.818,1.045,3.467c1.5,0.253,3.154-0.737,4.533-1.346  c1.998-0.883,3.948-1.858,5.87-2.884c0.392-0.209,0.779-0.428,1.169-0.641c-0.847,1.091-2.018,2.284-3.604,3.605  c-1.174,0.874-2.332,1.788-3.347,2.751c-2.184,1.498-4.348,3.018-6.43,4.621c-1.402,1.08-0.795,3.819,1.045,3.467  c1.5,0.253,3.155-0.737,4.533-1.346c1.998-0.883,3.947-1.857,5.87-2.884c1.922-1.026,3.818-2.104,5.712-3.187  c1.986-0.746,3.825-1.714,5.558-2.838c1.733-1.124,3.362-2.404,4.927-3.773c6.25-5.34,8.145-7.373,15.676-10.981  c1.506-0.722,12.38-5.213,13.973-5.671c3.881-2.179,26.65,9.104,28.823,5.615c2.483-2.736-12.636-6.428-19.996-8.855  c3.663,0.988,6.966,0.247,9.364-1.42c6.091,1.994,12.482,4.192,13.51,2.543C96.293,47.312,90.068,45.21,84.091,43.386z   M68.255,46.354c0.508,0.29,1.012,0.538,1.512,0.76C69.061,46.833,68.529,46.577,68.255,46.354z M73.464,39.386  c-1.013,0-1.834-0.821-1.834-1.834c0-1.013,0.821-1.834,1.834-1.834s1.422,0.75,1.422,1.763S74.477,39.386,73.464,39.386z"/><text x="0" y="115" fill="#000000" font-size="5px" font-weight="bold" font-family="'Helvetica Neue', Helvetica, Arial-Unicode, Arial, Sans-serif">Created by Nick Abrams</text><text x="0" y="120" fill="#000000" font-size="5px" font-weight="bold" font-family="'Helvetica Neue', Helvetica, Arial-Unicode, Arial, Sans-serif">from the Noun Project</text></svg>