<svg xmlns="http://www.w3.org/2000/svg" xmlns:xlink="http://www.w3.org/1999/xlink" version="1.1" x="0px" y="0px" viewBox="0 0 100 125" style="enable-background:new 0 0 100 100;" xml:space="preserve"><path d="M13.417,64.815c0.922,4.651,0.639,6.766,6.073,11.922c0.984,0.934,2.505,2.58,3.14,3.228  c-2.928,1.529-5.42,2.302-6.526,4.869c-1.968,4.566,4.177,2.381,6.519,1.405c-2.009,1.077-4.62,5.595-2.346,6.414  c2.577,0.927,8.771,0.896,15.928-0.838c7.719-1.869,6.642-0.949,7.232-5.068c3.554,0.344,3.91-0.375,7.412-1.135  c-4.066,2.754-1.343,7.607,2.677,6.895c6.94-1.229,11.167-2.195,18.055-0.791c8.581,1.749,7.841-3.129,8.325-4.427  c11.045,3.418,12.323-5.957,12.343-5.974c7.605-6.482-2.754-16.209-4.939-17.178c0.258,2.677,0.564,5.257-2.795,6.563  c0.416-1.322,0.68-2.689,0.458-4.499c-1.926-15.662-9.96-26.851-26.902-25.65c-7.326,0.519-23.461,8.224-25.187,9.417  c-0.075-2.726-2.118-9.364-6.162-11.235c3.551-3.726,6.865-6.111,9.05-8.378c3.236-3.358,2.187-14.137,2.716-19.266  c0.791-7.665-8.38,2.74-10.274,6.623c-2.508,5.144-4.996,14.901-9.974,19.171c-2.14-18.045-4.687-25.666-5.286-27.094  c-0.789-1.884-3.005-7.417-5.566,3.707c-4.042,17.557,3.888,16.936,4.353,29.581c-1.77,2.987-1.611,2.941-2.425,4.467  C4.996,55.642,0.76,64.815,13.417,64.815z M35.879,19.79c0.951-0.801,0.773,2.093-0.338,6.608c-1,4.064-7.898,8.71-8.231,9.027  C29.083,29.705,35.624,20.005,35.879,19.79z M20.521,47.543c2.052,3.196-4.539,3.953-4.793,5.024  C16.03,51.298,18.194,43.92,20.521,47.543z"/><text x="0" y="115" fill="#000000" font-size="5px" font-weight="bold" font-family="'Helvetica Neue', Helvetica, Arial-Unicode, Arial, Sans-serif">Created by Aleks</text><text x="0" y="120" fill="#000000" font-size="5px" font-weight="bold" font-family="'Helvetica Neue', Helvetica, Arial-Unicode, Arial, Sans-serif">from the Noun Project</text></svg>