<svg xmlns="http://www.w3.org/2000/svg" xmlns:xlink="http://www.w3.org/1999/xlink" xml:space="preserve" version="1.1" style="shape-rendering:geometricPrecision;text-rendering:geometricPrecision;image-rendering:optimizeQuality;" viewBox="0 0 373.42 577.6125" x="0px" y="0px" fill-rule="evenodd" clip-rule="evenodd"><defs><style type="text/css">
   
    .fil0 {fill:black}
   
  </style></defs><g><path class="fil0" d="M2.28 79.99c-3.08,43.76 -3.77,86.1 2.65,129.62 11.27,76.37 42.11,140.08 98.65,192.77 25.56,23.82 52.99,42.31 83.14,59.71 30.15,-17.4 57.57,-35.89 83.13,-59.71 56.55,-52.7 87.39,-116.41 98.66,-192.77 6.42,-43.52 5.72,-85.86 2.65,-129.62 -37.25,0.37 -68.16,-3 -102.77,-18.42 -33.69,-15.03 -56.75,-35.28 -81.67,-61.57 -24.93,26.29 -47.98,46.54 -81.68,61.57 -35.06,15.63 -65.38,18.79 -102.76,18.42zm110.84 -0.32c27.75,-12.36 51.97,-29.84 73.6,-51.07 21.62,21.23 45.85,38.71 73.59,51.07 29.38,13.1 60.18,19.34 92.27,20.17 2.08,36.76 1.46,73.71 -4.21,110.15 -10.76,69.06 -38.39,126.62 -88.99,175.02 -21.94,20.98 -46.58,38.71 -72.66,54.18 -26.08,-15.47 -50.72,-33.2 -72.67,-54.18 -50.6,-48.4 -78.23,-105.96 -88.98,-175.02 -5.68,-36.44 -6.3,-73.39 -4.21,-110.15 32.08,-0.83 62.89,-7.07 92.26,-20.17z"/><path class="fil0" d="M186.72 415.09c42.25,-26.54 79.24,-59.65 104.92,-102.96 34.42,-58.04 43.21,-126.41 41.24,-192.83 -55.39,-5.06 -104.16,-26.37 -146.16,-62.74 -42.01,36.37 -90.78,57.68 -146.16,62.74 -1.98,66.43 6.82,134.8 41.23,192.83 25.68,43.31 62.68,76.42 104.93,102.96z"/></g><text x="0" y="477.09" fill="#000000" font-size="5px" font-weight="bold" font-family="'Helvetica Neue', Helvetica, Arial-Unicode, Arial, Sans-serif">Created by Maniacco</text><text x="0" y="482.09" fill="#000000" font-size="5px" font-weight="bold" font-family="'Helvetica Neue', Helvetica, Arial-Unicode, Arial, Sans-serif">from the Noun Project</text></svg>